<svg width="40" height="26" viewBox="0 0 40 26" fill="none" xmlns="http://www.w3.org/2000/svg">
<g clip-path="url(#clip0_36_32)">
<path d="M40.0499 -0.0371094H-0.0488281V26.0372H40.0499V-0.0371094Z" fill="white"/>
<path d="M40.0499 10.1029H22.8648V-0.0371094H17.1364V10.1029H-0.0488281V15.8972H17.1364V26.0372H22.8648V15.8972H40.0499V10.1029Z" fill="#FF0000"/>
<path d="M9.97403 4.30868H8.54193V2.86011H7.10983V4.30868H5.67773V5.75725H7.10983V7.20582H8.54193V5.75725H9.97403V4.30868Z" fill="#FF0000"/>
<path d="M34.3217 4.30868H32.8896V2.86011H31.4575V4.30868H30.0254V5.75725H31.4575V7.20582H32.8896V5.75725H34.3217V4.30868Z" fill="#FF0000"/>
<path d="M9.97403 20.243H8.54193V18.7944H7.10983V20.243H5.67773V21.6916H7.10983V23.1401H8.54193V21.6916H9.97403V20.243Z" fill="#FF0000"/>
<path d="M34.3217 20.243H32.8896V18.7944H31.4575V20.243H30.0254V21.6916H31.4575V23.1401H32.8896V21.6916H34.3217V20.243Z" fill="#FF0000"/>
</g>
<defs>
<clipPath id="clip0_36_32">
<rect width="40" height="26" fill="white"/>
</clipPath>
</defs>
</svg>
